<svg width="446" height="399" viewBox="0 0 446 399" fill="none" xmlns="http://www.w3.org/2000/svg">
<g clip-path="url(#clip0_1_533)">
<path d="M0 240.919H4.29691V297.685H40.0925V302.064H0V240.919Z" fill="white"/>
<path d="M42.7525 279.437C42.7525 266.385 52.7064 255.979 65.4888 255.979C78.2712 255.979 88.2251 266.204 88.2251 279.256C88.2251 280.074 88.1288 280.351 88.1288 280.988H47.1336C47.8678 291.033 55.3543 298.599 65.4888 298.599C72.1568 298.599 77.4527 295.772 81.0997 290.022L85.204 291.117C81.1839 298.238 73.878 302.701 65.4767 302.701C52.6943 302.701 42.7404 292.392 42.7404 279.425L42.7525 279.437ZM83.7476 277.608C83.0134 267.299 75.3464 259.901 65.4888 259.901C55.6312 259.901 47.8678 267.479 47.1336 277.608H83.7476Z" fill="white"/>
<path d="M118.352 271.124C118.352 254.247 132.229 240.281 149.032 240.281C157.072 240.281 165.281 243.842 171.034 249.772L167.929 252.876C163.09 247.583 156.145 244.576 149.032 244.576C134.516 244.576 122.648 256.617 122.648 271.136C122.648 285.656 134.432 298.335 149.032 298.335C155.784 298.335 163.271 294.954 168.025 289.758L171.13 292.861C165.281 298.888 156.976 302.713 149.032 302.713C132.229 302.713 118.352 287.929 118.352 271.136V271.124Z" fill="white"/>
<path d="M179.616 240.919H200.258C214.689 240.919 222.537 246.945 222.537 259.348C222.537 269.2 218.155 274.95 209.02 277.055L224.811 302.064H219.612L204.266 277.789C202.99 277.885 201.714 277.885 200.246 277.885H183.997V302.064H179.616V240.919ZM183.997 244.937V273.951H200.246C212.113 273.951 218.24 269.753 218.24 259.263C218.24 249.315 211.668 244.937 200.246 244.937H183.997Z" fill="white"/>
<path d="M233.851 302.064V240.919H238.148V302.064H233.851Z" fill="white"/>
<path d="M252.507 284.08C254.336 291.382 262.003 298.13 270.128 298.226C279.72 298.323 286.376 292.837 286.376 286.642C286.376 278.426 278.529 275.695 272.776 273.314C271.127 272.676 264.735 270.306 262.545 269.392C256.888 267.107 250.22 262.271 250.22 254.608C250.22 246.945 257.803 240.462 269.851 240.281C281.538 240.101 289.121 246.945 289.843 256.894L285.823 257.351C285.823 250.229 279.335 244.215 270.116 244.215C260.896 244.215 254.685 249.508 254.685 254.62C254.685 261.826 263.183 264.929 266.649 266.204C268.382 266.938 274.497 269.404 275.869 269.849C285.823 273.314 290.938 278.246 290.938 286.365C290.938 295.123 282.717 302.701 270.116 302.701C260.065 302.701 250.388 295.039 248.017 284.537L252.495 284.08H252.507Z" fill="white"/>
<path d="M294.055 245.213V240.919H342.995V245.213H320.619V302.064H316.322V245.213H294.043H294.055Z" fill="white"/>
<path d="M337.386 302.064L359.484 240.919H376.744L398.842 302.064H394.365L387.697 283.635C381.209 283.081 375.829 279.797 368.066 279.797C360.303 279.797 355.464 283.178 348.531 283.635L341.863 302.064H337.386ZM349.988 279.521C356.198 278.703 360.94 275.78 368.066 275.78C375.191 275.78 380.307 278.607 386.144 279.521L373.819 245.213H362.409L349.988 279.521Z" fill="white"/>
<path d="M405.92 240.919H410.216V297.685H446.012V302.064H405.932V240.919H405.92Z" fill="white"/>
<path d="M178.918 197.557L87.2742 67.1115L132.939 0H224.92L270.573 67.1115L178.93 197.545L178.918 197.557ZM92.5581 67.0754L178.918 189.991L265.277 67.0754L222.609 4.34258H135.238L92.5701 67.0754H92.5581Z" fill="white"/>
<path d="M208.31 197.557L116.667 67.1115L162.32 0H254.3L299.953 67.1115L208.31 197.545V197.557ZM121.95 67.0754L208.31 189.991L294.669 67.0754L251.989 4.34258H164.619L121.95 67.0754Z" fill="white"/>
<path d="M237.702 197.557L146.047 67.1115L191.712 0H283.692L329.346 67.1115L237.702 197.545V197.557ZM151.331 67.0754L237.69 189.991L324.05 67.0754L281.381 4.34258H194.011L151.343 67.0754H151.331Z" fill="white"/>
<path d="M267.082 197.557L175.439 67.1115L221.092 0H313.073L358.726 67.1115L267.082 197.545V197.557ZM180.723 67.0754L267.082 189.991L353.442 67.0754L310.774 4.34258H223.403L180.735 67.0754H180.723Z" fill="white"/>
<path d="M223.006 100.336L200.294 66.4499L223.006 32.5633L245.718 66.4499L223.006 100.336ZM205.529 66.4499L223.006 92.5294L240.495 66.4499L223.018 40.3703L205.529 66.4499Z" fill="white"/>
<path d="M53.578 365.692L43.086 354.865V365.692H40.1463V354.865L29.6706 365.692H26L36.6219 354.556L26.6659 343.794H30.3365L40.1625 354.378V343.794H43.1023V354.378L52.9446 343.794H56.5989L46.6591 354.556L57.2648 365.692H53.6105H53.578Z" fill="white"/>
<path d="M81.8544 346.992L70.3879 365.692H66.1489V343.794H69.1048V362.494H69.2023L80.685 343.794H84.9078V365.692H81.9681V346.992H81.8544Z" fill="white"/>
<path d="M93.9543 365.757V363.046C94.2791 363.127 94.5877 363.176 94.8638 363.176C95.9195 363.176 96.6503 362.786 97.0564 362.023C97.4462 361.276 97.771 359.994 97.9984 358.192L99.8824 343.811H114.37V365.708H111.414V346.44H102.562L100.987 358.192C100.597 361.098 100.029 363.127 99.2814 364.263C98.5343 365.416 97.2838 366 95.5297 366C94.9775 366 94.3928 365.886 94.1492 365.821L93.9543 365.757Z" fill="white"/>
<path d="M125.3 354.735C125.3 351.407 126.291 348.696 128.272 346.619C130.238 344.525 132.901 343.486 136.247 343.486C139.593 343.486 142.256 344.525 144.238 346.619C146.203 348.713 147.194 351.407 147.194 354.735C147.194 358.062 146.203 360.789 144.238 362.851C142.256 364.945 139.593 365.984 136.247 365.984C132.901 365.984 130.238 364.945 128.272 362.851C126.291 360.773 125.3 358.079 125.3 354.735ZM144.14 354.735C144.14 352.235 143.442 350.174 142.045 348.567C140.648 346.96 138.716 346.164 136.247 346.164C133.778 346.164 131.846 346.96 130.449 348.567C129.052 350.174 128.354 352.235 128.354 354.735C128.354 357.235 129.052 359.28 130.449 360.887C131.846 362.494 133.778 363.305 136.247 363.305C138.716 363.305 140.648 362.494 142.045 360.887C143.442 359.28 144.14 357.235 144.14 354.735Z" fill="white"/>
<path d="M173.862 346.992L162.396 365.692H158.157V343.794H161.113V362.494H161.21L172.693 343.794H176.916V365.692H173.976V346.992H173.862ZM167.642 340.986C165.936 340.986 164.621 340.629 163.695 339.915C162.786 339.217 162.315 338.194 162.315 336.831V336.636H164.686V336.831C164.686 338.227 165.66 338.925 167.642 338.925C169.623 338.925 170.581 338.227 170.581 336.831V336.636H172.969V336.831C172.969 338.194 172.514 339.217 171.588 339.915C170.679 340.629 169.363 340.986 167.642 340.986Z" fill="white"/>
<path d="M215.976 365.692L204.867 354.865V365.692H201.911V343.794H204.867V354.378L215.294 343.794H218.948L208.408 354.556L219.631 365.692H215.976Z" fill="white"/>
<path d="M226.826 354.735C226.826 351.407 227.816 348.696 229.798 346.619C231.763 344.525 234.427 343.486 237.772 343.486C241.118 343.486 243.782 344.525 245.763 346.619C247.728 348.713 248.719 351.407 248.719 354.735C248.719 358.062 247.728 360.789 245.763 362.851C243.782 364.945 241.118 365.984 237.772 365.984C234.427 365.984 231.763 364.945 229.798 362.851C227.816 360.773 226.826 358.079 226.826 354.735ZM245.666 354.735C245.666 352.235 244.967 350.174 243.571 348.567C242.174 346.96 240.241 346.164 237.772 346.164C235.304 346.164 233.371 346.96 231.974 348.567C230.577 350.174 229.879 352.235 229.879 354.735C229.879 357.235 230.577 359.28 231.974 360.887C233.371 362.494 235.304 363.305 237.772 363.305C240.241 363.305 242.174 362.494 243.571 360.887C244.967 359.28 245.666 357.235 245.666 354.735Z" fill="white"/>
<path d="M269.2 359.848L262.752 347.252H262.622V365.692H259.666V343.794H264.181L270.986 357.089H271.116L277.905 343.794H282.42V365.692H279.48V347.252H279.35L272.919 359.848H269.216H269.2Z" fill="white"/>
<path d="M309.43 365.692V346.424H296.924V365.692H293.968V343.794H312.386V365.692H309.43Z" fill="white"/>
<path d="M321.416 365.757V363.046C321.741 363.127 322.049 363.176 322.325 363.176C323.381 363.176 324.112 362.786 324.518 362.023C324.908 361.276 325.233 359.994 325.46 358.192L327.344 343.811H341.831V365.708H338.875V346.44H330.024L328.448 358.192C328.059 361.098 327.49 363.127 326.743 364.263C325.996 365.416 324.745 366 322.991 366C322.439 366 321.854 365.886 321.611 365.821L321.416 365.757Z" fill="white"/>
<path d="M353.395 365.692V343.794H369.864V346.424H356.335V353.128H367.98V355.757H356.335V363.078H369.864V365.708H353.395V365.692Z" fill="white"/>
<path d="M394.551 365.692L383.442 354.865V365.692H380.486V343.794H383.442V354.378L393.869 343.794H397.523L386.983 354.556L398.205 365.692H394.551Z" fill="white"/>
<path d="M419.725 362.672C420.716 362.25 421.447 361.731 421.95 361.114C422.941 359.897 423.623 358.598 423.802 357.754L423.932 357.105H426.953C426.953 358.777 426.141 360.741 424.549 362.656C423.753 363.614 422.633 364.425 421.22 365.059C419.79 365.692 418.166 366 416.347 366C413.001 366 410.338 364.961 408.373 362.867C406.391 360.789 405.4 358.095 405.4 354.751C405.4 351.407 406.391 348.713 408.373 346.635C410.338 344.541 413.001 343.502 416.347 343.502C418.166 343.502 419.79 343.827 421.22 344.444C422.633 345.093 423.753 345.872 424.549 346.846C426.141 348.761 426.953 350.758 426.953 352.414H423.932C423.883 352.251 423.932 352.057 423.623 351.196C423.315 350.32 422.974 349.622 422.178 348.664C421.382 347.706 420.489 347.025 418.913 346.538C418.134 346.31 417.273 346.181 416.363 346.181C413.911 346.181 411.962 346.976 410.565 348.583C409.168 350.19 408.47 352.251 408.47 354.751C408.47 357.251 409.168 359.296 410.565 360.903C411.962 362.51 413.895 363.322 416.363 363.322C417.614 363.322 418.751 363.111 419.742 362.672H419.725Z" fill="white"/>
</g>
<defs>
<clipPath id="clip0_1_533">
<rect width="446" height="399" fill="white"/>
</clipPath>
</defs>
</svg>
